HIERARCHY
ROOT Pelvis
{
	OFFSET 0.000000 0.000000 0.000000
	CHANNELS 6 Xposition Yposition Zposition Xrotation Yrotation Zrotation
	JOINT LeftUpLeg_virtual
	{
		OFFSET 0.000000 0.000000 0.000000
		CHANNELS 3 Xrotation Yrotation Zrotation
		JOINT LeftUpLeg
		{
			OFFSET 18.735201 -5.666702 -4.541200
			CHANNELS 3 Xrotation Yrotation Zrotation
			JOINT LeftLeg
			{
				OFFSET -0.021200 -31.938179 0.493100
				CHANNELS 3 Xrotation Yrotation Zrotation
				JOINT LeftFoot
				{
					OFFSET 0.021200 -31.938179 -4.336299
					CHANNELS 3 Xrotation Yrotation Zrotation
					JOINT LeftToeBase
					{
						OFFSET 0.943001 -26.722000 15.023500
						CHANNELS 3 Xrotation Yrotation Zrotation
						End Site
						{
							OFFSET 0 0 0
						}
					}
				}
			}
		}
	}
	JOINT RightUpLeg_virtual
	{
		OFFSET 0.000000 0.000000 0.000000
		CHANNELS 3 Xrotation Yrotation Zrotation
		JOINT RightUpLeg
		{
			OFFSET -18.735201 -5.666702 -4.541200
			CHANNELS 3 Xrotation Yrotation Zrotation
			JOINT RightLeg
			{
				OFFSET 0.018946 -31.938133 0.493100
				CHANNELS 3 Xrotation Yrotation Zrotation
				JOINT RightFoot
				{
					OFFSET -0.018946 -31.938126 -4.336299
					CHANNELS 3 Xrotation Yrotation Zrotation
					JOINT RightToeBase
					{
						OFFSET -0.943001 -26.722004 15.023500
						CHANNELS 3 Xrotation Yrotation Zrotation
						End Site
						{
							OFFSET 0 0 0
						}
					}
				}
			}
		}
	}
	JOINT Hips_virtual
	{
		OFFSET 0.000000 0.000000 0.000000
		CHANNELS 3 Xrotation Yrotation Zrotation
		JOINT Hips
		{
			OFFSET -0.000000 -0.000000 -0.000000
			CHANNELS 3 Xrotation Yrotation Zrotation
			JOINT Spine
			{
				OFFSET 0.000000 10.199997 -0.299500
				CHANNELS 3 Xrotation Yrotation Zrotation
				JOINT Spine1
				{
					OFFSET 0.000000 11.900002 -1.516600
					CHANNELS 3 Xrotation Yrotation Zrotation
					JOINT Spine2
					{
						OFFSET 0.000000 13.600006 -2.842500
						CHANNELS 3 Xrotation Yrotation Zrotation
						JOINT Neck_virtual
						{
							OFFSET 0.000000 0.000000 0.000000
							CHANNELS 3 Xrotation Yrotation Zrotation
							JOINT Neck
							{
								OFFSET 0.000000 9.624100 -2.890100
								CHANNELS 3 Xrotation Yrotation Zrotation
								JOINT Head
								{
									OFFSET 0.000000 14.068802 -1.351900
									CHANNELS 3 Xrotation Yrotation Zrotation
									End Site
									{
										OFFSET 0 0 0
									}
								}
							}
						}
						JOINT LeftShoulder_virtual
						{
							OFFSET 0.000000 0.000000 0.000000
							CHANNELS 3 Xrotation Yrotation Zrotation
							JOINT LeftShoulder
							{
								OFFSET 15.263000 10.923401 -0.547700
								CHANNELS 3 Xrotation Yrotation Zrotation
								JOINT LeftArm
								{
									OFFSET 25.438599 -2.830597 -13.032500
									CHANNELS 3 Xrotation Yrotation Zrotation
									JOINT LeftForeArm
									{
										OFFSET 29.960503 0.000000 0.000000
										CHANNELS 3 Xrotation Yrotation Zrotation
										JOINT LeftHand
										{
											OFFSET 27.849251 0.000000 0.000000
											CHANNELS 3 Xrotation Yrotation Zrotation
											End Site
											{
												OFFSET 0 0 0
											}
										}
									}
								}
							}
						}
						JOINT RightShoulder_virtual
						{
							OFFSET 0.000000 0.000000 0.000000
							CHANNELS 3 Xrotation Yrotation Zrotation
							JOINT RightShoulder
							{
								OFFSET -15.263000 10.923401 -0.547700
								CHANNELS 3 Xrotation Yrotation Zrotation
								JOINT RightArm
								{
									OFFSET -25.438599 -2.830597 -13.032500
									CHANNELS 3 Xrotation Yrotation Zrotation
									JOINT RightForeArm
									{
										OFFSET -29.960503 0.000000 0.000000
										CHANNELS 3 Xrotation Yrotation Zrotation
										JOINT RightHand
										{
											OFFSET -27.849251 0.000000 0.000000
											CHANNELS 3 Xrotation Yrotation Zrotation
											End Site
											{
												OFFSET 0 0 0
											}
										}
									}
								}
							}
						}
					}
				}
			}
		}
	}
}
MOTION
Frames: 8
Frame Time: 0.03333333
-23.244019 92.096069 -10.534840 0.000000 0.000000 0.000000 -167.937386 -48.206857 -163.152387 -112.736698 -22.941507 4.368177 81.667670 -6.527014 -32.346649 55.535455 -16.681735 -27.369275 0.000000 0.000000 0.000000 -167.937386 -48.206857 -163.152387 -26.112496 31.887008 1.891959 39.851753 18.702371 -5.752235 -11.128645 9.725028 10.744205 0.000000 0.000000 0.000000 -167.937386 -48.206857 -163.152387 0.000000 0.000003 0.000000 17.494968 2.339331 -1.270221 8.584650 -0.768868 -1.067720 0.000000 0.000000 0.000000 8.613858 -0.684831 -1.055483 1.315575 8.396245 0.899060 0.000000 0.000000 0.000000 8.613858 -0.684831 -1.055483 -2.314307 -19.181504 9.645825 -51.327328 -47.749521 -40.680607 -98.688734 -30.890538 -92.924765 0.000000 0.000000 0.000000 8.613858 -0.684831 -1.055483 -5.432979 22.644165 5.004592 -52.631679 7.939697 23.713484 118.664182 44.432693 -113.869267 0.000000 0.000000 0.000000 
-23.805359 92.558472 -11.015152 0.000000 0.000000 0.000000 -167.645736 -46.125876 -162.652144 -114.471730 -22.979526 5.098163 80.593753 -6.856264 -32.708260 55.053456 -17.383803 -29.191720 0.000000 0.000000 0.000000 -167.645736 -46.125876 -162.652144 -24.749694 33.231876 1.760948 38.933817 19.217219 -5.637059 -10.940256 9.872483 10.600308 0.000000 0.000000 0.000000 -167.645736 -46.125876 -162.652144 0.000001 -0.000001 -0.000001 17.874706 2.438776 -1.544374 8.889996 -0.672199 -1.209730 0.000000 0.000000 0.000000 8.918212 -0.587179 -1.199350 1.430256 8.477311 0.859453 0.000000 0.000000 0.000000 8.918212 -0.587179 -1.199350 -2.111844 -18.783218 11.594753 -57.541345 -46.188751 -44.501947 -98.771823 -32.145691 -92.712435 0.000000 0.000000 0.000000 8.918212 -0.587179 -1.199350 -4.710942 23.091002 2.504146 -57.009096 7.316084 23.385407 120.495301 44.831415 -115.618328 0.000000 0.000000 0.000000 
-24.339432 93.004662 -11.467415 0.000000 0.000000 0.000000 -167.321726 -44.247226 -162.108311 -116.055569 -22.969067 5.682644 79.541146 -7.463552 -32.980330 54.177231 -18.000238 -31.198313 0.000000 0.000000 0.000000 -167.321726 -44.247226 -162.108311 -23.322975 34.489371 1.513239 38.118859 19.658176 -5.584913 -10.830558 9.972249 10.488152 0.000000 0.000000 0.000000 -167.321726 -44.247226 -162.108311 0.000000 0.000001 0.000000 18.232072 2.528779 -1.812425 9.182359 -0.573633 -1.355683 0.000000 0.000000 0.000000 9.209431 -0.487417 -1.347772 1.543244 8.549376 0.821217 0.000000 0.000000 0.000000 9.209431 -0.487417 -1.347772 -1.708637 -18.296960 14.299378 -63.045180 -44.076638 -47.688654 -98.832687 -33.423172 -92.650136 0.000000 0.000000 0.000000 9.209431 -0.487417 -1.347772 -3.961801 23.402316 0.011317 -60.996724 6.507637 22.843733 122.036192 45.207045 -117.083294 0.000000 0.000000 0.000000 
-24.995836 93.424614 -11.947338 0.000000 0.000000 0.000000 -167.001691 -42.573259 -161.536884 -117.528131 -22.776357 6.001944 78.692966 -7.962850 -33.073439 53.664660 -18.630577 -33.132022 0.000000 0.000000 0.000000 -167.001691 -42.573259 -161.536884 -21.797552 35.638226 1.143122 37.616338 20.021726 -5.640152 -11.003684 10.025155 10.328858 0.000000 0.000000 0.000000 -167.001691 -42.573259 -161.536884 0.000000 0.000000 -0.000001 18.562610 2.628878 -2.064731 9.456793 -0.479585 -1.500251 0.000000 0.000000 0.000000 9.482781 -0.391718 -1.495372 1.652861 8.613161 0.783823 0.000000 0.000000 0.000000 9.482781 -0.391718 -1.495372 -1.353459 -17.783128 16.989127 -68.037700 -42.061842 -50.427314 -98.809246 -34.501837 -92.534925 0.000000 0.000000 0.000000 9.482781 -0.391718 -1.495372 -3.221330 23.818384 -2.377801 -64.631020 5.220856 21.642974 123.514983 45.341992 -118.648459 0.000000 0.000000 0.000000 
-25.595623 93.756805 -12.365913 0.000000 0.000000 0.000000 -166.828791 -41.153075 -160.974363 -118.460943 -22.852005 6.431734 77.978426 -8.218647 -33.428558 53.287630 -19.311323 -34.978171 0.000000 0.000000 0.000000 -166.828791 -41.153075 -160.974363 -20.556311 36.746759 0.709499 37.513093 20.291824 -5.767351 -11.359072 10.018229 10.213760 0.000000 0.000000 0.000000 -166.828791 -41.153075 -160.974363 0.000000 -0.000003 0.000000 18.863350 2.719944 -2.281786 9.708553 -0.395324 -1.638886 0.000000 0.000000 0.000000 9.733534 -0.305671 -1.637465 1.758980 8.669031 0.747291 0.000000 0.000000 0.000000 9.733534 -0.305671 -1.637465 -1.028367 -17.270454 19.673110 -72.249468 -40.023676 -52.614084 -98.694669 -35.618549 -92.434009 0.000000 0.000000 0.000000 9.733534 -0.305671 -1.637465 -2.525919 24.010070 -4.580759 -68.052262 4.123792 20.350863 124.815369 45.407811 -120.114614 0.000000 0.000000 0.000000 
-26.183401 94.039223 -12.761101 0.000000 0.000000 0.000000 -166.638967 -39.986216 -160.414752 -119.089730 -22.837555 6.692280 77.284000 -8.319916 -33.536806 53.144797 -20.098060 -37.015356 0.000000 0.000000 0.000000 -166.638967 -39.986216 -160.414752 -19.362415 37.726833 0.237953 37.594160 20.473695 -5.882244 -11.825236 9.968314 10.052398 0.000000 0.000000 0.000000 -166.638967 -39.986216 -160.414752 0.000000 0.000001 0.000000 19.130964 2.813396 -2.469548 9.933201 -0.325228 -1.768040 0.000000 0.000000 0.000000 9.957231 -0.233586 -1.770325 1.860904 8.717671 0.711454 0.000000 0.000000 0.000000 9.957231 -0.233586 -1.770325 -0.742037 -16.787160 22.251626 -75.743547 -38.159358 -54.347047 -98.406381 -36.692562 -92.166757 0.000000 0.000000 0.000000 9.957231 -0.233586 -1.770325 -1.879491 24.223192 -6.585934 -71.028134 2.819982 18.703737 126.110577 45.456968 -121.669384 0.000000 0.000000 0.000000 
-26.777748 94.278145 -13.192646 0.000000 0.000000 0.000000 -166.526706 -39.048086 -159.888827 -119.600560 -22.547237 6.623816 75.998026 -9.085818 -33.400489 52.270553 -20.930531 -39.977370 0.000000 0.000000 0.000000 -166.526706 -39.048086 -159.888827 -18.288574 38.574730 -0.240940 37.910084 20.582017 -5.994746 -12.414508 9.901616 9.792673 0.000000 0.000000 0.000000 -166.526706 -39.048086 -159.888827 -0.000001 0.000000 0.000000 19.362476 2.924340 -2.633648 10.126823 -0.273159 -1.885045 0.000000 0.000000 0.000000 10.150079 -0.179296 -1.891160 1.956859 8.759678 0.675987 0.000000 0.000000 0.000000 10.150079 -0.179296 -1.891160 -0.494137 -16.339079 24.689862 -78.602158 -36.343320 -55.543549 -98.313893 -37.504572 -92.293983 0.000000 0.000000 0.000000 10.150079 -0.179296 -1.891160 -1.304847 24.365387 -8.345082 -73.690474 1.532232 16.866812 127.395035 45.463201 -123.298302 0.000000 0.000000 0.000000 
-27.238388 94.464493 -13.473766 0.000000 0.000000 0.000000 -166.417286 -38.369667 -159.378653 -119.941236 -22.457117 6.698733 75.198866 -9.475255 -33.514888 51.797194 -21.434076 -41.677650 0.000000 0.000000 0.000000 -166.417286 -38.369667 -159.378653 -17.356518 39.322560 -0.789102 38.187536 20.624557 -6.054278 -12.928125 9.797163 9.633366 0.000000 0.000000 0.000000 -166.417286 -38.369667 -159.378653 0.000000 -0.000001 0.000000 19.556438 2.989061 -2.771429 10.286308 -0.241466 -1.988257 0.000000 0.000000 0.000000 10.309030 -0.145405 -1.998016 2.047036 8.795510 0.640970 0.000000 0.000000 0.000000 10.309030 -0.145405 -1.998016 -0.283492 -15.940512 26.940112 -80.948868 -34.806835 -56.469740 -98.125407 -38.343763 -92.374422 0.000000 0.000000 0.000000 10.309030 -0.145405 -1.998016 -0.814663 24.452897 -9.837933 -76.008312 0.252022 14.905344 128.587054 45.476919 -124.865939 0.000000 0.000000 0.000000 
